# OBJ Export by Luxion KeyShot

mtllib perot_stand_pole.mtl

g mesh
usemtl -   #3
v 0 0 -4.7086
v 0.817639 318.8 -4.63706
v 0.817639 0 -4.63706
v 0.817639 0 -4.63706
v 0.817639 318.8 -4.63706
v 1.61044 318.8 -4.42463
v 0.817639 0 -4.63706
v 1.61044 318.8 -4.42463
v 1.61044 0 -4.42463
v 1.61044 0 -4.42463
v 1.61044 318.8 -4.42463
v 2.3543 318.8 -4.07776
v 1.61044 0 -4.42463
v 2.3543 318.8 -4.07776
v 2.3543 0 -4.07776
v 2.3543 0 -4.07776
v 2.3543 318.8 -4.07776
v 3.02663 318.8 -3.607
v 2.3543 0 -4.07776
v 3.02663 318.8 -3.607
v 3.02663 0 -3.607
v 3.02663 0 -3.607
v 3.02663 318.8 -3.607
v 3.607 318.8 -3.02663
v 3.02663 0 -3.607
v 3.607 318.8 -3.02663
v 3.607 0 -3.02663
v 3.607 0 -3.02663
v 3.607 318.8 -3.02663
v 4.07776 318.8 -2.3543
v 3.607 0 -3.02663
v 4.07776 318.8 -2.3543
v 4.07776 0 -2.3543
v 4.07776 0 -2.3543
v 4.07776 318.8 -2.3543
v 4.42463 318.8 -1.61044
v 4.07776 0 -2.3543
v 4.42463 318.8 -1.61044
v 4.42463 0 -1.61044
v 4.42463 0 -1.61044
v 4.42463 318.8 -1.61044
v 4.63706 318.8 -0.81764
v 4.42463 0 -1.61044
v 4.63706 318.8 -0.81764
v 4.63706 0 -0.81764
v 4.63706 0 -0.81764
v 4.63706 318.8 -0.81764
v 4.7086 318.8 0
v 4.63706 0 -0.81764
v 4.7086 318.8 0
v 4.7086 0 0
v 4.7086 0 0
v 4.7086 318.8 0
v 4.63706 318.8 0.817639
v 4.7086 0 0
v 4.63706 318.8 0.817639
v 4.63706 0 0.817639
v 4.63706 0 0.817639
v 4.63706 318.8 0.817639
v 4.42463 318.8 1.61044
v 4.63706 0 0.817639
v 4.42463 318.8 1.61044
v 4.42463 0 1.61044
v 4.42463 0 1.61044
v 4.42463 318.8 1.61044
v 4.07776 318.8 2.3543
v 4.42463 0 1.61044
v 4.07776 318.8 2.3543
v 4.07776 0 2.3543
v 4.07776 0 2.3543
v 4.07776 318.8 2.3543
v 3.607 318.8 3.02663
v 4.07776 0 2.3543
v 3.607 318.8 3.02663
v 3.607 0 3.02663
v 3.607 0 3.02663
v 3.607 318.8 3.02663
v 3.02663 318.8 3.607
v 3.607 0 3.02663
v 3.02663 318.8 3.607
v 3.02663 0 3.607
v 3.02663 0 3.607
v 3.02663 318.8 3.607
v 2.3543 318.8 4.07776
v 3.02663 0 3.607
v 2.3543 318.8 4.07776
v 2.3543 0 4.07776
v 2.3543 0 4.07776
v 2.3543 318.8 4.07776
v 1.61044 318.8 4.42463
v 2.3543 0 4.07776
v 1.61044 318.8 4.42463
v 1.61044 0 4.42463
v 1.61044 0 4.42463
v 1.61044 318.8 4.42463
v 0.817639 318.8 4.63706
v 1.61044 0 4.42463
v 0.817639 318.8 4.63706
v 0.817639 0 4.63706
v 0.817639 0 4.63706
v 0.817639 318.8 4.63706
v 0 318.8 4.7086
v 0.817639 0 4.63706
v 0 318.8 4.7086
v 0 0 4.7086
v 0 0 4.7086
v 0 318.8 4.7086
v -0.81764 318.8 4.63706
v 0 0 4.7086
v -0.81764 318.8 4.63706
v -0.81764 0 4.63706
v -0.81764 0 4.63706
v -0.81764 318.8 4.63706
v -1.61044 318.8 4.42463
v -0.81764 0 4.63706
v -1.61044 318.8 4.42463
v -1.61044 0 4.42463
v -1.61044 0 4.42463
v -1.61044 318.8 4.42463
v -2.3543 318.8 4.07776
v -1.61044 0 4.42463
v -2.3543 318.8 4.07776
v -2.3543 0 4.07776
v -2.3543 0 4.07776
v -2.3543 318.8 4.07776
v -3.02663 318.8 3.607
v -2.3543 0 4.07776
v -3.02663 318.8 3.607
v -3.02663 0 3.607
v -3.02663 0 3.607
v -3.02663 318.8 3.607
v -3.607 318.8 3.02663
v -3.02663 0 3.607
v -3.607 318.8 3.02663
v -3.607 0 3.02663
v -3.607 0 3.02663
v -3.607 318.8 3.02663
v -4.07776 318.8 2.3543
v -3.607 0 3.02663
v -4.07776 318.8 2.3543
v -4.07776 0 2.3543
v -4.07776 0 2.3543
v -4.07776 318.8 2.3543
v -4.42463 318.8 1.61044
v -4.07776 0 2.3543
v -4.42463 318.8 1.61044
v -4.42463 0 1.61044
v -4.42463 0 1.61044
v -4.42463 318.8 1.61044
v -4.63706 318.8 0.817639
v -4.42463 0 1.61044
v -4.63706 318.8 0.817639
v -4.63706 0 0.817639
v -4.63706 0 0.817639
v -4.63706 318.8 0.817639
v -4.7086 318.8 0
v -4.63706 0 0.817639
v -4.7086 318.8 0
v -4.7086 0 0
v -4.7086 0 0
v -4.7086 318.8 0
v -4.63706 318.8 -0.81764
v -4.7086 0 0
v -4.63706 318.8 -0.81764
v -4.63706 0 -0.81764
v -4.63706 0 -0.81764
v -4.63706 318.8 -0.81764
v -4.42463 318.8 -1.61044
v -4.63706 0 -0.81764
v -4.42463 318.8 -1.61044
v -4.42463 0 -1.61044
v -4.42463 0 -1.61044
v -4.42463 318.8 -1.61044
v -4.07776 318.8 -2.3543
v -4.42463 0 -1.61044
v -4.07776 318.8 -2.3543
v -4.07776 0 -2.3543
v -4.07776 0 -2.3543
v -4.07776 318.8 -2.3543
v -3.607 318.8 -3.02663
v -4.07776 0 -2.3543
v -3.607 318.8 -3.02663
v -3.607 0 -3.02663
v -3.607 0 -3.02663
v -3.607 318.8 -3.02663
v -3.02663 318.8 -3.607
v -3.607 0 -3.02663
v -3.02663 318.8 -3.607
v -3.02663 0 -3.607
v -3.02663 0 -3.607
v -3.02663 318.8 -3.607
v -2.3543 318.8 -4.07776
v -3.02663 0 -3.607
v -2.3543 318.8 -4.07776
v -2.3543 0 -4.07776
v -2.3543 0 -4.07776
v -2.3543 318.8 -4.07776
v -1.61044 318.8 -4.42463
v -2.3543 0 -4.07776
v -1.61044 318.8 -4.42463
v -1.61044 0 -4.42463
v -1.61044 0 -4.42463
v -1.61044 318.8 -4.42463
v -0.81764 318.8 -4.63706
v -1.61044 0 -4.42463
v -0.81764 318.8 -4.63706
v -0.81764 0 -4.63706
v -0.81764 0 -4.63706
v -0.81764 318.8 -4.63706
v 0 318.8 -4.7086
v -0.81764 0 -4.63706
v 0 318.8 -4.7086
v 0 0 -4.7086
v 0 0 -4.7086
v 0 318.8 -4.7086
v 0.817639 318.8 -4.63706
v -1.61044 318.8 4.42463
v -0.81764 318.8 4.63706
v 0 318.8 0
v 0 318.8 0
v -0.81764 318.8 4.63706
v 0 318.8 4.7086
v 0 318.8 0
v 0 318.8 4.7086
v 0.817639 318.8 4.63706
v -3.607 318.8 3.02663
v -3.02663 318.8 3.607
v 0 318.8 0
v 0 318.8 0
v -3.02663 318.8 3.607
v -2.3543 318.8 4.07776
v 0 318.8 0
v -2.3543 318.8 4.07776
v -1.61044 318.8 4.42463
v -4.63706 318.8 0.817639
v -4.42463 318.8 1.61044
v 0 318.8 0
v 0 318.8 0
v -4.42463 318.8 1.61044
v -4.07776 318.8 2.3543
v 0 318.8 0
v -4.07776 318.8 2.3543
v -3.607 318.8 3.02663
v -4.42463 318.8 -1.61044
v -4.63706 318.8 -0.81764
v 0 318.8 0
v 0 318.8 0
v -4.63706 318.8 -0.81764
v -4.7086 318.8 0
v 0 318.8 0
v -4.7086 318.8 0
v -4.63706 318.8 0.817639
v -3.02663 318.8 -3.607
v -3.607 318.8 -3.02663
v 0 318.8 0
v 0 318.8 0
v -3.607 318.8 -3.02663
v -4.07776 318.8 -2.3543
v 0 318.8 0
v -4.07776 318.8 -2.3543
v -4.42463 318.8 -1.61044
v -0.81764 318.8 -4.63706
v -1.61044 318.8 -4.42463
v 0 318.8 0
v 0 318.8 0
v -1.61044 318.8 -4.42463
v -2.3543 318.8 -4.07776
v 0 318.8 0
v -2.3543 318.8 -4.07776
v -3.02663 318.8 -3.607
v 1.61044 318.8 -4.42463
v 0.817639 318.8 -4.63706
v 0 318.8 0
v 0 318.8 0
v 0.817639 318.8 -4.63706
v 0 318.8 -4.7086
v 0 318.8 0
v 0 318.8 -4.7086
v -0.81764 318.8 -4.63706
v 3.607 318.8 -3.02663
v 3.02663 318.8 -3.607
v 0 318.8 0
v 0 318.8 0
v 3.02663 318.8 -3.607
v 2.3543 318.8 -4.07776
v 0 318.8 0
v 2.3543 318.8 -4.07776
v 1.61044 318.8 -4.42463
v 4.63706 318.8 -0.81764
v 4.42463 318.8 -1.61044
v 0 318.8 0
v 0 318.8 0
v 4.42463 318.8 -1.61044
v 4.07776 318.8 -2.3543
v 0 318.8 0
v 4.07776 318.8 -2.3543
v 3.607 318.8 -3.02663
v 4.42463 318.8 1.61044
v 4.63706 318.8 0.817639
v 0 318.8 0
v 0 318.8 0
v 4.63706 318.8 0.817639
v 4.7086 318.8 0
v 0 318.8 0
v 4.7086 318.8 0
v 4.63706 318.8 -0.81764
v 3.02663 318.8 3.607
v 3.607 318.8 3.02663
v 0 318.8 0
v 0 318.8 0
v 3.607 318.8 3.02663
v 4.07776 318.8 2.3543
v 0 318.8 0
v 4.07776 318.8 2.3543
v 4.42463 318.8 1.61044
v 0.817639 318.8 4.63706
v 1.61044 318.8 4.42463
v 0 318.8 0
v 0 318.8 0
v 1.61044 318.8 4.42463
v 2.3543 318.8 4.07776
v 0 318.8 0
v 2.3543 318.8 4.07776
v 3.02663 318.8 3.607
v 1.61044 0 4.42463
v 0.817639 0 4.63706
v 0 0 0
v 0 0 0
v 0.817639 0 4.63706
v 0 0 4.7086
v 0 0 0
v 0 0 4.7086
v -0.81764 0 4.63706
v 3.607 0 3.02663
v 3.02663 0 3.607
v 0 0 0
v 0 0 0
v 3.02663 0 3.607
v 2.3543 0 4.07776
v 0 0 0
v 2.3543 0 4.07776
v 1.61044 0 4.42463
v 4.63706 0 0.817639
v 4.42463 0 1.61044
v 0 0 0
v 0 0 0
v 4.42463 0 1.61044
v 4.07776 0 2.3543
v 0 0 0
v 4.07776 0 2.3543
v 3.607 0 3.02663
v 4.42463 0 -1.61044
v 4.63706 0 -0.81764
v 0 0 0
v 0 0 0
v 4.63706 0 -0.81764
v 4.7086 0 0
v 0 0 0
v 4.7086 0 0
v 4.63706 0 0.817639
v 3.02663 0 -3.607
v 3.607 0 -3.02663
v 0 0 0
v 0 0 0
v 3.607 0 -3.02663
v 4.07776 0 -2.3543
v 0 0 0
v 4.07776 0 -2.3543
v 4.42463 0 -1.61044
v 0.817639 0 -4.63706
v 1.61044 0 -4.42463
v 0 0 0
v 0 0 0
v 1.61044 0 -4.42463
v 2.3543 0 -4.07776
v 0 0 0
v 2.3543 0 -4.07776
v 3.02663 0 -3.607
v -1.61044 0 -4.42463
v -0.81764 0 -4.63706
v 0 0 0
v 0 0 0
v -0.81764 0 -4.63706
v 0 0 -4.7086
v 0 0 0
v 0 0 -4.7086
v 0.817639 0 -4.63706
v -3.607 0 -3.02663
v -3.02663 0 -3.607
v 0 0 0
v 0 0 0
v -3.02663 0 -3.607
v -2.3543 0 -4.07776
v 0 0 0
v -2.3543 0 -4.07776
v -1.61044 0 -4.42463
v -4.63706 0 -0.81764
v -4.42463 0 -1.61044
v 0 0 0
v 0 0 0
v -4.42463 0 -1.61044
v -4.07776 0 -2.3543
v 0 0 0
v -4.07776 0 -2.3543
v -3.607 0 -3.02663
v -4.42463 0 1.61044
v -4.63706 0 0.817639
v 0 0 0
v 0 0 0
v -4.63706 0 0.817639
v -4.7086 0 0
v 0 0 0
v -4.7086 0 0
v -4.63706 0 -0.81764
v -3.02663 0 3.607
v -3.607 0 3.02663
v 0 0 0
v 0 0 0
v -3.607 0 3.02663
v -4.07776 0 2.3543
v 0 0 0
v -4.07776 0 2.3543
v -4.42463 0 1.61044
v -0.81764 0 4.63706
v -1.61044 0 4.42463
v 0 0 0
v 0 0 0
v -1.61044 0 4.42463
v -2.3543 0 4.07776
v 0 0 0
v -2.3543 0 4.07776
v -3.02663 0 3.607
vn 0.087156 0 -0.996195
vn 0.087156 0 -0.996195
vn 0.087156 0 -0.996195
vn 0.258819 0 -0.965926
vn 0.258819 0 -0.965926
vn 0.258819 0 -0.965926
vn 0.258819 0 -0.965926
vn 0.258819 0 -0.965926
vn 0.258819 0 -0.965926
vn 0.422619 0 -0.906308
vn 0.422619 0 -0.906308
vn 0.422619 0 -0.906308
vn 0.422619 0 -0.906308
vn 0.422619 0 -0.906308
vn 0.422619 0 -0.906308
vn 0.573576 0 -0.819152
vn 0.573576 0 -0.819152
vn 0.573576 0 -0.819152
vn 0.573576 0 -0.819152
vn 0.573576 0 -0.819152
vn 0.573576 0 -0.819152
vn 0.707107 0 -0.707107
vn 0.707107 0 -0.707107
vn 0.707107 0 -0.707107
vn 0.707107 0 -0.707107
vn 0.707107 0 -0.707107
vn 0.707107 0 -0.707107
vn 0.819152 0 -0.573576
vn 0.819152 0 -0.573576
vn 0.819152 0 -0.573576
vn 0.819152 0 -0.573576
vn 0.819152 0 -0.573576
vn 0.819152 0 -0.573576
vn 0.906308 0 -0.422619
vn 0.906308 0 -0.422619
vn 0.906308 0 -0.422619
vn 0.906308 0 -0.422619
vn 0.906308 0 -0.422619
vn 0.906308 0 -0.422619
vn 0.965926 0 -0.258819
vn 0.965926 0 -0.258819
vn 0.965926 0 -0.258819
vn 0.965926 0 -0.258819
vn 0.965926 0 -0.258819
vn 0.965926 0 -0.258819
vn 0.996195 0 -0.087156
vn 0.996195 0 -0.087156
vn 0.996195 0 -0.087156
vn 0.996195 0 -0.087156
vn 0.996195 0 -0.087156
vn 0.996195 0 -0.087156
vn 0.996195 -0 0.087156
vn 0.996195 -0 0.087156
vn 0.996195 -0 0.087156
vn 0.996195 0 0.087156
vn 0.996195 0 0.087156
vn 0.996195 0 0.087156
vn 0.965926 -0 0.258819
vn 0.965926 -0 0.258819
vn 0.965926 -0 0.258819
vn 0.965926 0 0.258819
vn 0.965926 0 0.258819
vn 0.965926 0 0.258819
vn 0.906308 -0 0.422619
vn 0.906308 -0 0.422619
vn 0.906308 -0 0.422619
vn 0.906308 0 0.422619
vn 0.906308 0 0.422619
vn 0.906308 0 0.422619
vn 0.819152 -0 0.573576
vn 0.819152 -0 0.573576
vn 0.819152 -0 0.573576
vn 0.819152 0 0.573576
vn 0.819152 0 0.573576
vn 0.819152 0 0.573576
vn 0.707107 -0 0.707107
vn 0.707107 -0 0.707107
vn 0.707107 -0 0.707107
vn 0.707107 0 0.707107
vn 0.707107 0 0.707107
vn 0.707107 0 0.707107
vn 0.573576 -0 0.819152
vn 0.573576 -0 0.819152
vn 0.573576 -0 0.819152
vn 0.573576 0 0.819152
vn 0.573576 0 0.819152
vn 0.573576 0 0.819152
vn 0.422619 -0 0.906308
vn 0.422619 -0 0.906308
vn 0.422619 -0 0.906308
vn 0.422619 0 0.906308
vn 0.422619 0 0.906308
vn 0.422619 0 0.906308
vn 0.258819 -0 0.965926
vn 0.258819 -0 0.965926
vn 0.258819 -0 0.965926
vn 0.258819 0 0.965926
vn 0.258819 0 0.965926
vn 0.258819 0 0.965926
vn 0.087156 -0 0.996195
vn 0.087156 -0 0.996195
vn 0.087156 -0 0.996195
vn 0.087156 0 0.996195
vn 0.087156 0 0.996195
vn 0.087156 0 0.996195
vn -0.087156 0 0.996195
vn -0.087156 0 0.996195
vn -0.087156 0 0.996195
vn -0.087156 0 0.996195
vn -0.087156 0 0.996195
vn -0.087156 0 0.996195
vn -0.258819 0 0.965926
vn -0.258819 0 0.965926
vn -0.258819 0 0.965926
vn -0.258819 0 0.965926
vn -0.258819 0 0.965926
vn -0.258819 0 0.965926
vn -0.422619 0 0.906308
vn -0.422619 0 0.906308
vn -0.422619 0 0.906308
vn -0.422619 0 0.906308
vn -0.422619 0 0.906308
vn -0.422619 0 0.906308
vn -0.573576 0 0.819152
vn -0.573576 0 0.819152
vn -0.573576 0 0.819152
vn -0.573576 0 0.819152
vn -0.573576 0 0.819152
vn -0.573576 0 0.819152
vn -0.707107 0 0.707107
vn -0.707107 0 0.707107
vn -0.707107 0 0.707107
vn -0.707107 0 0.707107
vn -0.707107 0 0.707107
vn -0.707107 0 0.707107
vn -0.819152 0 0.573576
vn -0.819152 0 0.573576
vn -0.819152 0 0.573576
vn -0.819152 0 0.573576
vn -0.819152 0 0.573576
vn -0.819152 0 0.573576
vn -0.906308 0 0.422619
vn -0.906308 0 0.422619
vn -0.906308 0 0.422619
vn -0.906308 0 0.422619
vn -0.906308 0 0.422619
vn -0.906308 0 0.422619
vn -0.965926 0 0.258819
vn -0.965926 0 0.258819
vn -0.965926 0 0.258819
vn -0.965926 0 0.258819
vn -0.965926 0 0.258819
vn -0.965926 0 0.258819
vn -0.996195 0 0.087156
vn -0.996195 0 0.087156
vn -0.996195 0 0.087156
vn -0.996195 0 0.087156
vn -0.996195 0 0.087156
vn -0.996195 0 0.087156
vn -0.996195 0 -0.087156
vn -0.996195 0 -0.087156
vn -0.996195 0 -0.087156
vn -0.996195 0 -0.087156
vn -0.996195 0 -0.087156
vn -0.996195 0 -0.087156
vn -0.965926 0 -0.258819
vn -0.965926 0 -0.258819
vn -0.965926 0 -0.258819
vn -0.965926 0 -0.258819
vn -0.965926 0 -0.258819
vn -0.965926 0 -0.258819
vn -0.906308 0 -0.422619
vn -0.906308 0 -0.422619
vn -0.906308 0 -0.422619
vn -0.906308 0 -0.422619
vn -0.906308 0 -0.422619
vn -0.906308 0 -0.422619
vn -0.819152 0 -0.573576
vn -0.819152 0 -0.573576
vn -0.819152 0 -0.573576
vn -0.819152 0 -0.573576
vn -0.819152 0 -0.573576
vn -0.819152 0 -0.573576
vn -0.707107 0 -0.707107
vn -0.707107 0 -0.707107
vn -0.707107 0 -0.707107
vn -0.707107 0 -0.707107
vn -0.707107 0 -0.707107
vn -0.707107 0 -0.707107
vn -0.573576 0 -0.819152
vn -0.573576 0 -0.819152
vn -0.573576 0 -0.819152
vn -0.573576 0 -0.819152
vn -0.573576 0 -0.819152
vn -0.573576 0 -0.819152
vn -0.422619 0 -0.906308
vn -0.422619 0 -0.906308
vn -0.422619 0 -0.906308
vn -0.422619 0 -0.906308
vn -0.422619 0 -0.906308
vn -0.422619 0 -0.906308
vn -0.258819 0 -0.965926
vn -0.258819 0 -0.965926
vn -0.258819 0 -0.965926
vn -0.258819 0 -0.965926
vn -0.258819 0 -0.965926
vn -0.258819 0 -0.965926
vn -0.087156 0 -0.996195
vn -0.087156 0 -0.996195
vn -0.087156 0 -0.996195
vn -0.087156 0 -0.996195
vn -0.087156 0 -0.996195
vn -0.087156 0 -0.996195
vn 0.087156 0 -0.996195
vn 0.087156 0 -0.996195
vn 0.087156 0 -0.996195
vn 0 1 0
vn 0 1 0
vn 0 1 0
vn 0 1 0
vn 0 1 0
vn 0 1 0
vn 0 1 0
vn 0 1 0
vn 0 1 0
vn 0 1 0
vn 0 1 0
vn 0 1 0
vn 0 1 0
vn 0 1 0
vn 0 1 0
vn 0 1 0
vn 0 1 0
vn 0 1 0
vn 0 1 0
vn 0 1 0
vn 0 1 0
vn 0 1 0
vn 0 1 0
vn 0 1 0
vn 0 1 0
vn 0 1 0
vn 0 1 0
vn 0 1 0
vn 0 1 0
vn 0 1 0
vn 0 1 0
vn 0 1 0
vn 0 1 0
vn 0 1 0
vn 0 1 0
vn 0 1 0
vn 0 1 0
vn 0 1 0
vn 0 1 0
vn 0 1 0
vn 0 1 0
vn 0 1 0
vn 0 1 0
vn 0 1 0
vn 0 1 0
vn 0 1 0
vn 0 1 0
vn 0 1 0
vn 0 1 0
vn 0 1 0
vn 0 1 0
vn 0 1 0
vn 0 1 0
vn 0 1 0
vn 0 1 0
vn 0 1 0
vn 0 1 0
vn 0 1 0
vn 0 1 0
vn 0 1 0
vn 0 1 0
vn 0 1 0
vn 0 1 0
vn 0 1 0
vn 0 1 0
vn 0 1 0
vn 0 1 0
vn 0 1 0
vn 0 1 0
vn 0 1 0
vn 0 1 0
vn 0 1 0
vn 0 1 0
vn 0 1 0
vn 0 1 0
vn 0 1 0
vn 0 1 0
vn 0 1 0
vn 0 1 0
vn 0 1 0
vn 0 1 0
vn 0 1 0
vn 0 1 0
vn 0 1 0
vn 0 1 0
vn 0 1 0
vn 0 1 0
vn 0 1 0
vn 0 1 0
vn 0 1 0
vn 0 1 0
vn 0 1 0
vn 0 1 0
vn 0 1 0
vn 0 1 0
vn 0 1 0
vn 0 1 0
vn 0 1 0
vn 0 1 0
vn 0 1 0
vn 0 1 0
vn 0 1 0
vn 0 1 0
vn 0 1 0
vn 0 1 0
vn 0 1 0
vn 0 1 0
vn 0 1 0
vn 0 -1 0
vn 0 -1 0
vn 0 -1 0
vn 0 -1 0
vn 0 -1 0
vn 0 -1 0
vn 0 -1 0
vn 0 -1 0
vn 0 -1 0
vn 0 -1 0
vn 0 -1 0
vn 0 -1 0
vn 0 -1 0
vn 0 -1 0
vn 0 -1 0
vn 0 -1 0
vn 0 -1 0
vn 0 -1 0
vn 0 -1 0
vn 0 -1 0
vn 0 -1 0
vn 0 -1 0
vn 0 -1 0
vn 0 -1 0
vn 0 -1 0
vn 0 -1 0
vn 0 -1 0
vn 0 -1 0
vn 0 -1 0
vn 0 -1 0
vn 0 -1 0
vn 0 -1 0
vn 0 -1 0
vn 0 -1 0
vn 0 -1 0
vn 0 -1 0
vn 0 -1 0
vn 0 -1 0
vn 0 -1 0
vn 0 -1 0
vn 0 -1 0
vn 0 -1 0
vn 0 -1 0
vn 0 -1 0
vn 0 -1 0
vn 0 -1 0
vn 0 -1 0
vn 0 -1 0
vn 0 -1 0
vn 0 -1 0
vn 0 -1 0
vn 0 -1 0
vn 0 -1 0
vn 0 -1 0
vn 0 -1 0
vn 0 -1 0
vn 0 -1 0
vn 0 -1 0
vn 0 -1 0
vn 0 -1 0
vn 0 -1 0
vn 0 -1 0
vn 0 -1 0
vn 0 -1 0
vn 0 -1 0
vn 0 -1 0
vn 0 -1 0
vn 0 -1 0
vn 0 -1 0
vn 0 -1 0
vn 0 -1 0
vn 0 -1 0
vn 0 -1 0
vn 0 -1 0
vn 0 -1 0
vn 0 -1 0
vn 0 -1 0
vn 0 -1 0
vn 0 -1 0
vn 0 -1 0
vn 0 -1 0
vn 0 -1 0
vn 0 -1 0
vn 0 -1 0
vn 0 -1 0
vn 0 -1 0
vn 0 -1 0
vn 0 -1 0
vn 0 -1 0
vn 0 -1 0
vn 0 -1 0
vn 0 -1 0
vn 0 -1 0
vn 0 -1 0
vn 0 -1 0
vn 0 -1 0
vn 0 -1 0
vn 0 -1 0
vn 0 -1 0
vn 0 -1 0
vn 0 -1 0
vn 0 -1 0
vn 0 -1 0
vn 0 -1 0
vn 0 -1 0
vn 0 -1 0
vn 0 -1 0
vn 0 -1 0
f -432//-432 -431//-431 -430//-430
f -429//-429 -428//-428 -427//-427
f -426//-426 -425//-425 -424//-424
f -423//-423 -422//-422 -421//-421
f -420//-420 -419//-419 -418//-418
f -417//-417 -416//-416 -415//-415
f -414//-414 -413//-413 -412//-412
f -411//-411 -410//-410 -409//-409
f -408//-408 -407//-407 -406//-406
f -405//-405 -404//-404 -403//-403
f -402//-402 -401//-401 -400//-400
f -399//-399 -398//-398 -397//-397
f -396//-396 -395//-395 -394//-394
f -393//-393 -392//-392 -391//-391
f -390//-390 -389//-389 -388//-388
f -387//-387 -386//-386 -385//-385
f -384//-384 -383//-383 -382//-382
f -381//-381 -380//-380 -379//-379
f -378//-378 -377//-377 -376//-376
f -375//-375 -374//-374 -373//-373
f -372//-372 -371//-371 -370//-370
f -369//-369 -368//-368 -367//-367
f -366//-366 -365//-365 -364//-364
f -363//-363 -362//-362 -361//-361
f -360//-360 -359//-359 -358//-358
f -357//-357 -356//-356 -355//-355
f -354//-354 -353//-353 -352//-352
f -351//-351 -350//-350 -349//-349
f -348//-348 -347//-347 -346//-346
f -345//-345 -344//-344 -343//-343
f -342//-342 -341//-341 -340//-340
f -339//-339 -338//-338 -337//-337
f -336//-336 -335//-335 -334//-334
f -333//-333 -332//-332 -331//-331
f -330//-330 -329//-329 -328//-328
f -327//-327 -326//-326 -325//-325
f -324//-324 -323//-323 -322//-322
f -321//-321 -320//-320 -319//-319
f -318//-318 -317//-317 -316//-316
f -315//-315 -314//-314 -313//-313
f -312//-312 -311//-311 -310//-310
f -309//-309 -308//-308 -307//-307
f -306//-306 -305//-305 -304//-304
f -303//-303 -302//-302 -301//-301
f -300//-300 -299//-299 -298//-298
f -297//-297 -296//-296 -295//-295
f -294//-294 -293//-293 -292//-292
f -291//-291 -290//-290 -289//-289
f -288//-288 -287//-287 -286//-286
f -285//-285 -284//-284 -283//-283
f -282//-282 -281//-281 -280//-280
f -279//-279 -278//-278 -277//-277
f -276//-276 -275//-275 -274//-274
f -273//-273 -272//-272 -271//-271
f -270//-270 -269//-269 -268//-268
f -267//-267 -266//-266 -265//-265
f -264//-264 -263//-263 -262//-262
f -261//-261 -260//-260 -259//-259
f -258//-258 -257//-257 -256//-256
f -255//-255 -254//-254 -253//-253
f -252//-252 -251//-251 -250//-250
f -249//-249 -248//-248 -247//-247
f -246//-246 -245//-245 -244//-244
f -243//-243 -242//-242 -241//-241
f -240//-240 -239//-239 -238//-238
f -237//-237 -236//-236 -235//-235
f -234//-234 -233//-233 -232//-232
f -231//-231 -230//-230 -229//-229
f -228//-228 -227//-227 -226//-226
f -225//-225 -224//-224 -223//-223
f -222//-222 -221//-221 -220//-220
f -219//-219 -218//-218 -217//-217
f -216//-216 -215//-215 -214//-214
f -213//-213 -212//-212 -211//-211
f -210//-210 -209//-209 -208//-208
f -207//-207 -206//-206 -205//-205
f -204//-204 -203//-203 -202//-202
f -201//-201 -200//-200 -199//-199
f -198//-198 -197//-197 -196//-196
f -195//-195 -194//-194 -193//-193
f -192//-192 -191//-191 -190//-190
f -189//-189 -188//-188 -187//-187
f -186//-186 -185//-185 -184//-184
f -183//-183 -182//-182 -181//-181
f -180//-180 -179//-179 -178//-178
f -177//-177 -176//-176 -175//-175
f -174//-174 -173//-173 -172//-172
f -171//-171 -170//-170 -169//-169
f -168//-168 -167//-167 -166//-166
f -165//-165 -164//-164 -163//-163
f -162//-162 -161//-161 -160//-160
f -159//-159 -158//-158 -157//-157
f -156//-156 -155//-155 -154//-154
f -153//-153 -152//-152 -151//-151
f -150//-150 -149//-149 -148//-148
f -147//-147 -146//-146 -145//-145
f -144//-144 -143//-143 -142//-142
f -141//-141 -140//-140 -139//-139
f -138//-138 -137//-137 -136//-136
f -135//-135 -134//-134 -133//-133
f -132//-132 -131//-131 -130//-130
f -129//-129 -128//-128 -127//-127
f -126//-126 -125//-125 -124//-124
f -123//-123 -122//-122 -121//-121
f -120//-120 -119//-119 -118//-118
f -117//-117 -116//-116 -115//-115
f -114//-114 -113//-113 -112//-112
f -111//-111 -110//-110 -109//-109
f -108//-108 -107//-107 -106//-106
f -105//-105 -104//-104 -103//-103
f -102//-102 -101//-101 -100//-100
f -99//-99 -98//-98 -97//-97
f -96//-96 -95//-95 -94//-94
f -93//-93 -92//-92 -91//-91
f -90//-90 -89//-89 -88//-88
f -87//-87 -86//-86 -85//-85
f -84//-84 -83//-83 -82//-82
f -81//-81 -80//-80 -79//-79
f -78//-78 -77//-77 -76//-76
f -75//-75 -74//-74 -73//-73
f -72//-72 -71//-71 -70//-70
f -69//-69 -68//-68 -67//-67
f -66//-66 -65//-65 -64//-64
f -63//-63 -62//-62 -61//-61
f -60//-60 -59//-59 -58//-58
f -57//-57 -56//-56 -55//-55
f -54//-54 -53//-53 -52//-52
f -51//-51 -50//-50 -49//-49
f -48//-48 -47//-47 -46//-46
f -45//-45 -44//-44 -43//-43
f -42//-42 -41//-41 -40//-40
f -39//-39 -38//-38 -37//-37
f -36//-36 -35//-35 -34//-34
f -33//-33 -32//-32 -31//-31
f -30//-30 -29//-29 -28//-28
f -27//-27 -26//-26 -25//-25
f -24//-24 -23//-23 -22//-22
f -21//-21 -20//-20 -19//-19
f -18//-18 -17//-17 -16//-16
f -15//-15 -14//-14 -13//-13
f -12//-12 -11//-11 -10//-10
f -9//-9 -8//-8 -7//-7
f -6//-6 -5//-5 -4//-4
f -3//-3 -2//-2 -1//-1

